<svg width="100%" height="100%" viewBox="0 0 746 133" fill="none" xmlns="http://www.w3.org/2000/svg">
    <path d="M265.008 127.873c-.289 2.685-1.734 4.028-4.337 4.028h-30.154c-.772 0-1.544.015-2.315-.015-6.358-.34-8.58-2.979-7.192-9.229 4.044-18.241 8.272-36.435 12.408-54.66.725-3.18 1.497-6.358 2.022-9.568.663-4.06-1.467-6.605-5.571-7.007-5.417-.54-9.97 2.238-11.806 7.933-1.636 5.046-2.685 10.293-3.874 15.463-3.348 14.537-6.682 29.058-9.938 43.611-1.234 5.524-.046 7.469 5.201 9.352-.216 2.736-1.626 4.105-4.229 4.105h-30.416c-.865 0-1.729.015-2.578-.047-6.003-.463-8.179-3.163-6.851-9.058 4.166-18.488 8.472-36.945 12.7-55.433.633-2.762 1.219-5.54 1.636-8.333.71-4.8-1.574-7.407-6.373-7.5-5.402-.093-9.013 2.207-10.602 7.577-1.976 6.744-3.565 13.611-5.155 20.463-2.993 12.87-5.941 25.756-8.734 38.658-1.297 6.018-.448 7.33 5.077 9.645-.257 2.675-1.62 4.012-4.09 4.012h-30.663c-.864 0-1.729.016-2.577-.046-5.741-.448-7.979-3.102-6.744-8.673 3.765-17.099 7.716-34.151 11.589-51.235 2.423-10.694 4.892-21.389 7.253-32.099 1.173-5.324-.046-7.345-5.169-9.135.169-4.12.262-4.213 4.135-4.213 9.97 0 19.939-.031 29.892 0 9.63.03 11.559 2.5 9.46 11.898-.169.74-.247 1.497 0 2.484 1.05-1.373 2.192-2.67 3.133-4.105 4.676-7.098 11.266-10.694 19.707-10.694 6.003 0 12.052-.154 17.978.54 9.136 1.08 12.053 4.383 13.318 13.534.078.556.278 1.096.479 1.883 2.577-3.21 4.923-6.25 7.376-9.182 2.994-3.565 6.821-6.05 11.466-6.25 7.531-.309 15.078-.124 22.608-.078 1.004 0 2.022.355 3.025.602 8.38 2.192 12.084 7.624 10.401 16.127-2.052 10.417-4.429 20.787-6.759 31.157-3.256 14.399-6.605 28.766-9.907 43.149-.016.077-.031.169-.047.247-1.296 6.142-.478 7.731 5.201 10.046l.016.046ZM486.537 40.759l4.259-5.787c3.488-4.769 8.241-7.516 13.997-8.349 8.117-1.173 16.265-1.188 24.383.123 1.095.17 2.191.463 3.256.757 7.052 1.96 10.648 5.987 9.444 14.737-1.157 8.38-3.24 16.636-5.092 24.923-3.827 17.084-7.809 34.136-11.605 51.22-1.266 5.679-.17 7.422 5.092 9.413-.077 3.982-.2 4.105-3.95 4.105h-31.976c-7.052-.108-9.382-2.917-7.855-9.753 3.21-14.491 6.544-28.95 9.8-43.426 1.42-6.265 2.855-12.531 4.182-18.812 1.188-5.633-1.559-8.812-7.33-8.642-5.803.17-9.383 2.407-11.096 8.195-2.238 7.546-3.904 15.262-5.71 22.932-2.593 11.018-5.093 22.052-7.623 33.086a55.87 55.87 0 0 0-.587 2.778c-1.065 5.926-.247 7.423 5.247 9.599-.329 2.695-1.862 4.038-4.599 4.028H438.62c-.864 0-1.728.015-2.577-.047-5.864-.447-8.071-3.132-6.79-8.904 4.49-20.077 9.135-40.124 13.719-60.185 3.673-16.065 7.33-32.13 10.987-48.195.278-1.25.479-2.53.572-3.812.246-3.349-1.127-4.892-5.788-6.59.309-1.28.618-2.576.895-3.78.278-.154.433-.309.571-.309 11.852-.015 23.704-.046 35.572 0 1.095 0 2.222.278 3.287.571 3.009.834 4.66 2.763 4.197 5.88-.725 4.907-1.867 9.753-2.932 14.599-1.296 5.864-2.701 11.713-4.043 17.577-.139.633-.17 1.296-.247 1.929.17.046.339.077.509.123l-.015.016ZM685.765 133.398c-12.407-.154-21.682-.401-30.725-2.886-7.346-2.021-13.195-5.787-15.571-13.518-1.528-4.969-1.25-10.062-.51-15.062 2.516-17.099 6.328-33.889 12.809-49.97 1.559-3.873 3.673-7.577 5.972-11.08 4.923-7.484 12.145-11.929 20.803-13.58 16.697-3.194 33.488-2.963 50.201.077 2.422.448 4.83 1.297 7.083 2.3 8.148 3.61 10.787 10.648 10.941 18.858.17 9.583-1.635 18.981-4.105 28.164-2.885 10.756-5.926 21.512-9.737 31.959-5.077 13.905-15.448 21.744-30.263 23.334-6.651.71-13.333 1.126-16.913 1.42l.015-.016Zm.216-24.846c6.405.047 10.803-2.824 13.025-9.29 2.006-5.818 3.642-11.79 5.046-17.778 1.698-7.253 3.087-14.583 4.367-21.913.942-5.401-1.512-9.105-6.296-10.14-7.222-1.573-13.704 1.637-15.555 8.736-3.488 13.317-6.574 26.759-9.368 40.246-1.373 6.59 2.068 10.109 8.781 10.139ZM5.995 95.389h5.062c.108.555.216 1.095.34 1.65.663 3.35 2.206 4.908 5.555 5.556 1.095.216 2.191.494 3.302.494 9.198.031 18.38.155 27.577-.077 6.713-.17 10.68-3.333 12.223-9.043 1.296-4.8-.016-8.858-4.368-11.266-4.784-2.654-9.892-4.737-14.815-7.16a248.211 248.211 0 0 1-10.061-5.216c-9.414-5.17-13.596-12.932-11.682-23.735 1.65-9.383 3.595-18.688 7.422-27.484.787-1.806 1.76-3.535 2.747-5.232C34.53 4.956 42.2.064 52.693.033c18.132-.046 36.25-.03 54.382-.03.247 0 .494.092 1.281.23-1.79 6.884-3.426 13.751-5.416 20.51-.818 2.763-3.442 3.75-6.173 3.812-6.698.139-13.395.062-20.093.216-3.164.077-6.373.232-9.475.787-6.096 1.096-9.83 7.222-8.395 13.21.725 2.994 2.947 4.599 5.432 5.818 6.157 3.04 12.407 5.88 18.58 8.889 2.7 1.312 5.355 2.716 7.901 4.29 5.895 3.657 8.642 9.136 8.735 15.972.185 12.176-3.133 23.596-7.639 34.738-1.28 3.164-2.809 6.281-4.583 9.182-6.62 10.772-17.1 14.043-28.905 14.167-15.463.154-30.926.154-46.389 0-10.895-.108-13.503-4.09-11.126-13.966 1.774-7.408 3.426-14.846 5.17-22.5l.015.03ZM417.262 98.182c-1.374 5.926-2.732 11.821-4.121 17.731-.771 3.256-1.481 6.513-2.376 9.722-1.219 4.399-3.303 6.034-7.979 6.22-3.348.123-6.697.03-10.046.03-11.59 0-23.194.031-34.784-.03a25.55 25.55 0 0 1-5.617-.618c-5.031-1.157-7.716-4.151-7.315-9.367.416-5.34 1.589-10.664 2.747-15.911 3.966-17.9 8.071-35.771 12.114-53.657.123-.571.139-1.173.262-2.176h-9.058c1.527-6.682 2.901-12.917 4.475-19.09.154-.602 1.574-1.126 2.454-1.234 10.231-1.22 19.336-4.846 26.373-12.577 2.516-2.763 4.321-6.142 6.528-9.198.448-.617 1.157-1.45 1.775-1.466 5.046-.124 10.092-.062 15.524-.062-1.512 6.713-2.963 13.102-4.506 19.954h25.787c-1.682 6.713-3.117 12.948-4.861 19.105-.849 2.994-3.441 4.182-6.389 4.321-2.993.139-6.003.077-9.012.123-1.543.031-3.086.031-4.63.17-4.938.417-6.45 1.528-7.747 6.39-1.45 5.462-2.638 10.987-3.888 16.496-1.744 7.685-3.488 15.37-5.17 23.086-.278 1.25-.324 2.547-.371 3.828-.077 2.345 1.05 4.012 3.287 4.66 5.216 1.513 10.571 1.759 15.726.139 1.821-.571 3.703-2.407 4.599-4.151 1.435-2.855 3.317-3.256 6.234-2.454l-.015.016ZM639.16 26.777c-1.836 7.115-3.503 14.09-5.494 20.973-.756 2.623-3.179 3.456-5.771 3.472-5.834.03-11.683 0-17.516 0-11.728.03-15.432 2.53-18.38 13.812-2.407 9.197-4.274 18.55-5.91 27.916-.988 5.71 1.744 9.754 7.454 10.309 7.284.71 14.691.417 22.021.139 2.855-.108 5.525-1.883 6.821-4.537 1.312-2.67 3.226-2.639 5.88-2.269-.725 3.395-1.42 6.698-2.145 9.985-.957 4.259-2.083 8.488-2.886 12.778-1.281 6.79-5.293 11.003-11.944 12.176-5.463.972-11.065 1.45-16.621 1.636-9.876.339-19.753.154-29.491-1.837-12.978-2.654-19.274-10.278-19.151-23.472.124-14.584 3.843-28.534 8.071-42.33 1.914-6.204 4.337-12.27 6.852-18.272 5.756-13.75 16.235-20.602 31.142-20.664 15.108-.062 30.232-.077 45.34-.108.416 0 .818.124 1.728.278v.015ZM325.271 127.904c-.288 2.655-1.667 3.987-4.136 3.997h-30.664c-.771 0-1.543.016-2.314-.031-5.926-.401-8.149-2.978-6.929-8.78 2.438-11.575 5.108-23.102 7.746-34.646 3.504-15.293 7.068-30.57 10.587-45.864a34.75 34.75 0 0 0 .494-2.53c1.003-5.757.123-7.331-5.201-9.399.206-2.767 1.698-4.151 4.475-4.151 9.784 0 19.584-.047 29.368.03 2.129.016 4.305.201 6.358.741 3.071.803 4.444 2.516 4.043 5.664-.617 4.738-1.651 9.444-2.716 14.12-5.232 22.902-10.525 45.803-15.787 68.704-.17.756-.34 1.513-.478 2.269-1.081 6.312-.51 7.392 5.154 9.892v-.016ZM342.415 20.342c-9.768 0-19.213.17-28.642-.062-5.987-.154-8.04-2.978-7.006-8.95.571-3.287 1.373-6.544 2.191-9.769.155-.586.88-1.481 1.343-1.481 9.769.046 19.568-.078 29.321.432 4.506.231 6.157 2.84 5.463 7.284-.664 4.213-1.759 8.364-2.67 12.546Z" fill="#ffffff"></path>
</svg>